<svg width="288" height="97" viewBox="0 0 288 97" fill="none" xmlns="http://www.w3.org/2000/svg">
<path d="M117.346 54H109.937V4.359H127.2C137.721 4.359 145.945 9.17491 145.945 19.3995C145.945 26.4381 141.648 31.5504 134.684 33.0322C138.685 34.9586 140.833 39.0336 143.723 44.8868L148.242 54H140.092L135.943 45.6277C132.98 39.7745 130.535 35.9218 123.57 35.9218H117.42L117.346 54ZM127.275 11.3236H117.495L117.42 29.1795H127.126C133.498 29.1795 138.166 26.0677 138.166 20.0663C138.166 13.9167 133.276 11.3236 127.275 11.3236ZM170.844 54.815C159.804 54.815 151.58 46.8132 151.58 35.6254C151.58 25.1786 159.063 16.6581 169.954 16.6581C180.92 16.6581 187.736 24.5859 187.736 34.7363V37.7H158.693C159.508 43.9236 164.249 48.295 170.769 48.295C175.215 48.295 179.216 46.3686 181.364 42.3677L186.995 45.2573C183.809 51.4809 177.956 54.815 170.844 54.815ZM158.989 32.9581H180.401C180.105 27.179 175.882 23.2522 169.88 23.2522C163.731 23.2522 159.73 27.5495 158.989 32.9581ZM209.534 54.815C202.791 54.815 197.605 52.1477 194.789 46.7391L200.42 43.6273C202.273 47.2577 205.236 48.5914 209.237 48.5914C213.386 48.5914 216.572 46.8873 216.572 43.7013C216.572 36.07 195.753 41.8491 195.753 27.994C195.753 21.6222 201.384 16.9545 209.311 16.9545C216.054 16.9545 220.647 20.0663 222.944 24.2895L217.313 27.4754C215.757 24.2895 212.794 23.1781 209.459 23.1781C206.051 23.1781 203.088 24.9563 203.088 27.8459C203.088 35.255 223.907 29.8463 223.907 43.5532C223.907 50.4436 217.239 54.815 209.534 54.815ZM283.57 54.8891H255.341C241.19 54.5186 230.446 43.4791 230.446 29.1054C230.446 14.7317 241.634 3.54399 256.008 3.54399C270.307 3.54399 281.421 14.7317 281.421 29.1054C281.421 36.8109 278.309 43.6273 273.271 48.295C274.012 48.2209 274.827 48.2209 275.494 48.2209H283.57V54.8891ZM256.008 47.7023C265.788 47.7023 273.641 39.5522 273.641 29.1054C273.641 18.8067 265.862 10.7308 256.008 10.7308C246.154 10.7308 238.226 18.8067 238.226 29.1054C238.226 39.5522 246.08 47.7023 256.008 47.7023Z" fill="#CBA135"/>
<path d="M108.788 88.2093C105.976 88.2093 103.611 86.9399 102.616 84.65L104.756 83.6046C105.403 85.0482 106.822 85.8198 108.788 85.8198C110.73 85.8198 112.223 84.8989 112.223 83.2562C112.223 81.4143 110.531 81.0907 108.564 80.7174C106.05 80.2196 102.939 79.3982 102.939 75.8639C102.939 73.1011 105.453 71.0103 108.614 71.0103C111.153 71.0103 113.418 72.205 114.413 74.4949L112.298 75.5901C111.626 74.2211 110.356 73.3749 108.514 73.3749C106.822 73.3749 105.453 74.3705 105.453 75.7892C105.453 77.5813 107.22 77.9795 109.236 78.3777C111.725 78.8755 114.762 79.6969 114.762 83.2313C114.762 86.1683 112.148 88.2093 108.788 88.2093ZM123.218 88.2342C119.683 88.2342 117.095 85.3469 117.095 81.8126C117.095 78.328 119.882 75.4407 123.591 75.4407C127.275 75.4407 130.087 78.1786 130.087 81.8126V87.9355H127.748V85.7949C126.827 87.2883 125.209 88.2342 123.218 88.2342ZM123.591 85.8945C125.881 85.8945 127.623 84.0527 127.623 81.8374C127.623 79.5973 125.881 77.7555 123.591 77.7555C121.326 77.7555 119.559 79.5973 119.559 81.8374C119.559 84.0527 121.326 85.8945 123.591 85.8945ZM137.375 87.9355H134.911V77.8799H132.596V75.7394H134.911V74.47C134.911 71.8815 136.529 69.94 139.591 69.94C140.412 69.94 141.183 70.0894 141.806 70.3881V72.7277C141.233 72.3793 140.511 72.1801 139.815 72.1801C138.296 72.1801 137.375 72.8522 137.375 74.47V75.7394H141.656V77.8799H137.375V87.9355ZM149.258 88.2093C145.55 88.2093 142.787 85.5212 142.787 81.7628C142.787 78.2533 145.301 75.3909 148.959 75.3909C152.643 75.3909 154.933 78.0542 154.933 81.4641V82.4597H145.176C145.45 84.5505 147.043 86.019 149.233 86.019C150.727 86.019 152.071 85.3718 152.793 84.0278L154.684 84.9985C153.614 87.0892 151.648 88.2093 149.258 88.2093ZM145.276 80.8667H152.469C152.369 78.9253 150.951 77.6061 148.935 77.6061C146.869 77.6061 145.525 79.0498 145.276 80.8667ZM163.425 88.2591C160.389 88.2591 158.771 86.3425 158.771 83.5549V77.8799H156.357V75.7394H158.771V72.5784H161.235V75.7394H165.914V77.8799H161.235V83.4802C161.235 85.0731 162.181 86.019 163.649 86.019C164.446 86.019 165.317 85.7203 165.914 85.2971V87.5621C165.292 87.9853 164.321 88.2591 163.425 88.2591ZM174.656 93.8593C172.067 93.8593 169.927 92.7641 168.831 90.5987L170.872 89.4787C171.569 90.7978 172.938 91.5694 174.606 91.5694C177.194 91.5694 178.538 89.628 178.538 86.9897V85.9194C177.817 87.2883 176.522 88.1097 174.681 88.1097C170.947 88.1097 169.13 85.6456 169.13 82.0615V75.7394H171.569V81.937C171.569 84.2269 172.764 85.7949 174.979 85.7949C177.12 85.7949 178.514 84.0029 178.514 81.7628V75.7394H181.003V86.9648C181.003 91.0467 178.613 93.8593 174.656 93.8593ZM193.622 73.3251C192.726 73.3251 192.004 72.6033 192.004 71.7072C192.004 70.8112 192.726 70.0645 193.622 70.0645C194.518 70.0645 195.215 70.8112 195.215 71.7072C195.215 72.6033 194.518 73.3251 193.622 73.3251ZM192.402 75.7394H194.866V87.9355H192.402V75.7394ZM204.928 77.8053C202.539 77.8053 201.344 79.7716 201.344 82.0366V87.9355H198.88V81.7877C198.88 78.2284 200.996 75.4407 204.928 75.4407C208.911 75.4407 211.076 78.2284 211.076 81.7628V87.9355H208.612V82.0615C208.612 79.7716 207.368 77.8053 204.928 77.8053ZM226.085 88.2093C223.82 88.2093 222.077 87.3132 221.132 85.4963L223.023 84.4509C223.646 85.6705 224.641 86.1185 225.985 86.1185C227.379 86.1185 228.449 85.546 228.449 84.4758C228.449 81.9121 221.455 83.8535 221.455 79.1991C221.455 77.0586 223.347 75.4905 226.01 75.4905C228.275 75.4905 229.818 76.5359 230.59 77.9546L228.698 79.0249C228.175 77.9546 227.18 77.5813 226.06 77.5813C224.915 77.5813 223.919 78.1786 223.919 79.1493C223.919 81.6383 230.913 79.8214 230.913 84.426C230.913 86.7408 228.673 88.2093 226.085 88.2093ZM235.599 73.3251C234.703 73.3251 233.981 72.6033 233.981 71.7072C233.981 70.8112 234.703 70.0645 235.599 70.0645C236.495 70.0645 237.192 70.8112 237.192 71.7072C237.192 72.6033 236.495 73.3251 235.599 73.3251ZM234.38 75.7394H236.844V87.9355H234.38V75.7394ZM241.234 70.1392H243.698V87.9355H241.234V70.1392ZM253.412 88.2093C249.703 88.2093 246.941 85.5212 246.941 81.7628C246.941 78.2533 249.454 75.3909 253.113 75.3909C256.797 75.3909 259.087 78.0542 259.087 81.4641V82.4597H249.33C249.604 84.5505 251.197 86.019 253.387 86.019C254.88 86.019 256.225 85.3718 256.946 84.0278L258.838 84.9985C257.768 87.0892 255.801 88.2093 253.412 88.2093ZM249.43 80.8667H256.623C256.523 78.9253 255.104 77.6061 253.088 77.6061C251.023 77.6061 249.678 79.0498 249.43 80.8667ZM268.077 77.8053C265.688 77.8053 264.493 79.7716 264.493 82.0366V87.9355H262.029V81.7877C262.029 78.2284 264.144 75.4407 268.077 75.4407C272.059 75.4407 274.225 78.2284 274.225 81.7628V87.9355H271.761V82.0615C271.761 79.7716 270.516 77.8053 268.077 77.8053ZM283.306 88.2591C280.269 88.2591 278.651 86.3425 278.651 83.5549V77.8799H276.237V75.7394H278.651V72.5784H281.115V75.7394H285.795V77.8799H281.115V83.4802C281.115 85.0731 282.061 86.019 283.53 86.019C284.326 86.019 285.197 85.7203 285.795 85.2971V87.5621C285.172 87.9853 284.202 88.2591 283.306 88.2591Z" fill="#CBA135"/>
<path fill-rule="evenodd" clip-rule="evenodd" d="M40.2774 28.8852V8.05548H56.3883V28.8852L71.1172 14.1564L82.5093 25.5485L67.7805 40.2774H88.6102V56.3883H67.7805L82.5093 71.1172L71.1172 82.5093L56.3883 67.7805V88.6102H40.2774V67.7805L25.5485 82.5093L14.1564 71.1172L28.8852 56.3883H8.05548V40.2774H28.8852L14.1564 25.5485L25.5485 14.1564L40.2774 28.8852Z" stroke="#CBA135" stroke-width="2.89418"/>
</svg>
